<svg xmlns="http://www.w3.org/2000/svg" viewBox="0 0 64 64" role="img" aria-labelledby="title desc">
  <title>One-Arm Parent</title>
  <desc>Baby icon matching the app logo.</desc>
  <rect width="64" height="64" rx="18" fill="#fff6ec" />
  <rect x="8" y="8" width="48" height="48" rx="16" fill="#e07856" />
  <g transform="translate(16 16) scale(1.3333333333)" fill="none" stroke="#ffffff" stroke-linecap="round" stroke-linejoin="round" stroke-width="2">
    <path d="M10 16c.5.3 1.2.5 2 .5s1.5-.2 2-.5" />
    <path d="M15 12h.01" />
    <path d="M19.38 6.813A9 9 0 0 1 20.8 10.2a2 2 0 0 1 0 3.6 9 9 0 0 1-17.6 0 2 2 0 0 1 0-3.6A9 9 0 0 1 12 3c2 0 3.5 1.1 3.5 2.5s-.9 2.5-2 2.5c-.8 0-1.5-.4-1.5-1" />
    <path d="M9 12h.01" />
  </g>
</svg>